<svg width="32" height="32" viewBox="0 0 32 32" fill="none" xmlns="http://www.w3.org/2000/svg">
<rect width="32" height="32" rx="16" fill="#E3E7D9"/>
<path d="M21.1053 4.80005H17.1592V20.058C17.1592 21.876 15.6416 23.3693 13.7528 23.3693C11.8641 23.3693 10.3464 21.876 10.3464 20.058C10.3464 18.2725 11.8304 16.8116 13.6517 16.7467V12.916C9.63816 12.9809 6.40039 16.1299 6.40039 20.058C6.40039 24.0186 9.70562 27.2 13.7866 27.2C17.8675 27.2 21.1727 23.9861 21.1727 20.058V12.2342C22.6567 13.2731 24.4779 13.8899 26.4004 13.9224V10.0916C23.4325 9.99425 21.1053 7.65686 21.1053 4.80005Z" fill="#1E1E1E"/>
</svg>
