<svg width="32" height="32" viewBox="0 0 32 32" fill="none" xmlns="http://www.w3.org/2000/svg">
<rect width="32" height="32" rx="16" fill="#E3E7D9"/>
<path d="M16 8.70261C20.0243 8.70261 23.2974 11.9757 23.2974 16C23.2974 20.0243 20.0243 23.2974 16 23.2974C11.9757 23.2974 8.70261 20.0243 8.70261 16C8.70261 11.9757 11.9757 8.70261 16 8.70261ZM16 8C11.5809 8 8 11.5809 8 16C8 20.4191 11.5809 24 16 24C20.4191 24 24 20.4191 24 16C24 11.5809 20.4191 8 16 8Z" fill="#1E1E1E"/>
<path d="M13.6875 20.5625L20.5625 15.8016L13.6875 11.4375V20.5625Z" fill="#1E1E1E"/>
</svg>
