<svg width="32" height="32" viewBox="0 0 32 32" fill="none" xmlns="http://www.w3.org/2000/svg">
<g clip-path="url(#clip0_1668_1627)">
<path fill-rule="evenodd" clip-rule="evenodd" d="M16 0C7.16344 0 0 7.16344 0 16C0 24.8366 7.16344 32 16 32C24.8366 32 32 24.8366 32 16C32 7.16344 24.8366 0 16 0ZM19.2029 7.20115C20.8037 7.4861 22.3347 7.98361 23.7624 8.65889C23.7747 8.66439 23.7853 8.67356 23.7915 8.68638C26.3211 12.5218 27.5704 16.8483 27.1034 21.829C27.1016 21.8501 27.091 21.8694 27.0742 21.8822C25.1583 23.3326 23.3023 24.2131 21.472 24.7967C21.4429 24.8059 21.4111 24.7949 21.3934 24.7693C20.9705 24.1627 20.5864 23.5232 20.2501 22.8516C20.2306 22.8122 20.2483 22.7645 20.288 22.7489C20.8981 22.5116 21.4782 22.2276 22.0362 21.8913C22.0804 21.8648 22.083 21.7997 22.0424 21.7685C21.9241 21.6778 21.8067 21.5826 21.6945 21.4873C21.6733 21.4699 21.6451 21.4662 21.6212 21.4781C17.9986 23.2034 14.0298 23.2034 10.3639 21.4781C10.3401 21.4671 10.3118 21.4708 10.2915 21.4882C10.1794 21.5835 10.0619 21.6778 9.94449 21.7685C9.90388 21.7997 9.90742 21.8648 9.95155 21.8913C10.5096 22.2212 11.0897 22.5116 11.6989 22.7499C11.7386 22.7654 11.7572 22.8122 11.7377 22.8516C11.4084 23.5241 11.0243 24.1636 10.5935 24.7702C10.5749 24.7949 10.544 24.8059 10.5149 24.7967C8.6934 24.2131 6.83747 23.3326 4.92151 21.8822C4.90562 21.8694 4.89414 21.8492 4.89237 21.8281C4.50212 17.5199 5.29764 13.1577 8.20161 8.68546C8.20864 8.67356 8.21924 8.66439 8.23161 8.65889C9.6602 7.9827 11.1912 7.48519 12.7911 7.20115C12.8202 7.19656 12.8493 7.21031 12.8643 7.23688C13.0621 7.59787 13.2881 8.06059 13.4409 8.43898C15.1273 8.17328 16.8402 8.17328 18.5619 8.43898C18.7146 8.06882 18.9327 7.59787 19.1296 7.23688C19.1446 7.20939 19.1738 7.19565 19.2029 7.20115ZM10.2721 16.8776C10.2721 18.1604 11.1815 19.2049 12.2852 19.2049C13.4065 19.2049 14.2982 18.1604 14.2982 16.8776C14.3159 15.604 13.4153 14.5504 12.2852 14.5504C11.1638 14.5504 10.2721 15.5949 10.2721 16.8776ZM17.7152 16.8776C17.7152 18.1604 18.6246 19.2049 19.7282 19.2049C20.8584 19.2049 21.7413 18.1604 21.7413 16.8776C21.759 15.604 20.8584 14.5504 19.7282 14.5504C18.6069 14.5504 17.7152 15.5949 17.7152 16.8776Z" fill="#E3E7D9"/>
</g>
<defs>
<clipPath id="clip0_1668_1627">
<rect width="32" height="32" fill="white"/>
</clipPath>
</defs>
</svg>
