<svg width="32" height="32" viewBox="0 0 32 32" fill="none" xmlns="http://www.w3.org/2000/svg">
<rect width="32" height="32" rx="16" fill="#E3E7D9"/>
<path d="M23.7624 8.65889C22.3347 7.98361 20.8037 7.4861 19.2029 7.20115C19.1738 7.19565 19.1446 7.20939 19.1296 7.23688C18.9327 7.59787 18.7146 8.06882 18.5619 8.43898C16.8402 8.17328 15.1273 8.17328 13.4409 8.43898C13.2881 8.06059 13.0621 7.59787 12.8643 7.23688C12.8493 7.21031 12.8202 7.19656 12.7911 7.20115C11.1912 7.48518 9.66019 7.9827 8.23161 8.65889C8.21924 8.66439 8.20864 8.67356 8.20161 8.68547C5.29764 13.1577 4.50212 17.5199 4.89237 21.8281C4.89414 21.8492 4.90562 21.8694 4.92151 21.8822C6.83747 23.3326 8.6934 24.2131 10.5149 24.7967C10.544 24.8059 10.5749 24.7949 10.5935 24.7702C11.0243 24.1636 11.4084 23.5241 11.7377 22.8516C11.7572 22.8122 11.7386 22.7654 11.6989 22.7499C11.0897 22.5116 10.5096 22.2212 9.95155 21.8913C9.90742 21.8648 9.90388 21.7997 9.94449 21.7685C10.0619 21.6778 10.1794 21.5835 10.2915 21.4882C10.3118 21.4708 10.3401 21.4671 10.3639 21.4781C14.0298 23.2034 17.9986 23.2034 21.6212 21.4781C21.6451 21.4662 21.6733 21.4699 21.6945 21.4873C21.8067 21.5826 21.9241 21.6778 22.0424 21.7685C22.083 21.7997 22.0804 21.8648 22.0362 21.8913C21.4782 22.2276 20.8981 22.5116 20.288 22.7489C20.2483 22.7645 20.2306 22.8122 20.2501 22.8516C20.5864 23.5232 20.9705 24.1627 21.3934 24.7693C21.4111 24.7949 21.4429 24.8059 21.472 24.7967C23.3023 24.2131 25.1583 23.3326 27.0742 21.8822C27.091 21.8694 27.1016 21.8501 27.1034 21.829C27.5704 16.8483 26.3211 12.5218 23.7915 8.68638C23.7853 8.67356 23.7747 8.66439 23.7624 8.65889ZM12.2852 19.2049C11.1815 19.2049 10.2721 18.1604 10.2721 16.8776C10.2721 15.5949 11.1638 14.5504 12.2852 14.5504C13.4153 14.5504 14.3159 15.604 14.2982 16.8776C14.2982 18.1604 13.4065 19.2049 12.2852 19.2049ZM19.7282 19.2049C18.6246 19.2049 17.7152 18.1604 17.7152 16.8776C17.7152 15.5949 18.6069 14.5504 19.7282 14.5504C20.8584 14.5504 21.759 15.604 21.7413 16.8776C21.7413 18.1604 20.8584 19.2049 19.7282 19.2049Z" fill="#1E1E1E"/>
</svg>
