<svg width="32" height="32" viewBox="0 0 32 32" fill="none" xmlns="http://www.w3.org/2000/svg">
<g clip-path="url(#clip0_1668_1522)">
<path fill-rule="evenodd" clip-rule="evenodd" d="M16 0C7.16344 0 0 7.16344 0 16C0 24.8366 7.16344 32 16 32C24.8366 32 32 24.8366 32 16C32 7.16344 24.8366 0 16 0ZM20.0357 7.86111C18.9802 7.81349 18.6667 7.80159 15.996 7.80159C13.3294 7.80159 13.0119 7.80952 11.9563 7.86111C10.9802 7.90476 10.4524 8.07143 10.0992 8.20635C9.63095 8.38492 9.29762 8.60317 8.94841 8.95238C8.59921 9.30159 8.38492 9.63492 8.20238 10.1032C8.06349 10.4563 7.90079 10.9841 7.85714 11.9603C7.80952 13.0159 7.79762 13.3294 7.79762 16C7.79762 18.6706 7.80952 18.9841 7.85714 20.0397C7.90079 21.0159 8.06746 21.5436 8.20238 21.8968C8.38095 22.3651 8.59921 22.6984 8.94841 23.0476C9.29762 23.3968 9.63095 23.6111 10.0992 23.7936C10.4524 23.9325 10.9802 24.0952 11.9563 24.1389C13.0119 24.1865 13.3254 24.1984 15.996 24.1984C18.6667 24.1984 18.9802 24.1865 20.0357 24.1389C21.0119 24.0952 21.5397 23.9286 21.8929 23.7936C22.3611 23.6151 22.6944 23.3968 23.0437 23.0476C23.3929 22.6984 23.6071 22.3651 23.7897 21.8968C23.9286 21.5436 24.0913 21.0159 24.1349 20.0397C24.1825 18.9841 24.1944 18.6706 24.1944 16C24.1944 13.3294 24.1825 13.0159 24.1349 11.9603C24.0913 10.9841 23.9246 10.4563 23.7897 10.1032C23.6111 9.63492 23.3929 9.30159 23.0437 8.95238C22.6944 8.60317 22.3611 8.38889 21.8929 8.20635C21.5397 8.06746 21.0119 7.90476 20.0357 7.86111ZM11.873 6.05952C12.9405 6.0119 13.2817 6 15.996 6C18.7103 6 19.0516 6.0119 20.123 6.05556C21.1905 6.10317 21.9167 6.27381 22.5516 6.51984C23.2064 6.77778 23.7659 7.11905 24.3214 7.6746C24.877 8.23016 25.2222 8.78571 25.4762 9.44444C25.7222 10.0833 25.8929 10.8095 25.9405 11.873C25.9881 12.9405 26 13.2778 26 15.996C26 18.7143 25.9881 19.0516 25.9405 20.119C25.8929 21.1865 25.7222 21.9127 25.4762 22.5476C25.2183 23.2024 24.877 23.7619 24.3214 24.3174C23.7659 24.873 23.2103 25.2182 22.5516 25.4722C21.9127 25.7182 21.1865 25.8889 20.123 25.9365C19.0556 25.9841 18.7183 25.996 16 25.996C13.2817 25.996 12.9444 25.9841 11.877 25.9365C10.8095 25.8889 10.0833 25.7182 9.44841 25.4722C8.79365 25.2143 8.23413 24.873 7.67857 24.3174C7.12302 23.7619 6.77778 23.2063 6.52381 22.5476C6.27778 21.9087 6.10714 21.1825 6.05952 20.119C6.0119 19.0516 6 18.7103 6 15.996C6 13.2817 6.0119 12.9405 6.05952 11.877C6.10714 10.8095 6.27778 10.0833 6.52381 9.44841C6.78175 8.79365 7.12302 8.23413 7.67857 7.67857C8.23413 7.12301 8.78968 6.77778 9.44841 6.52381C10.0833 6.27778 10.8095 6.10714 11.873 6.05952ZM15.9958 10.8652C13.1625 10.8652 10.8609 13.1628 10.8609 16.0001C10.8609 18.8374 13.1585 21.1351 15.9958 21.1351C18.8331 21.1351 21.1307 18.8374 21.1307 16.0001C21.1307 13.1628 18.8331 10.8652 15.9958 10.8652ZM15.9958 19.3295C14.1546 19.3295 12.6625 17.8374 12.6625 15.9962C12.6625 14.1549 14.1546 12.6628 15.9958 12.6628C17.8371 12.6628 19.3292 14.1549 19.3292 15.9962C19.3292 17.8374 17.8371 19.3295 15.9958 19.3295ZM22.5312 10.6588C22.5312 11.3207 21.9946 11.8572 21.3328 11.8572C20.6709 11.8572 20.1344 11.3207 20.1344 10.6588C20.1344 9.99693 20.6709 9.46039 21.3328 9.46039C21.9946 9.46039 22.5312 9.99693 22.5312 10.6588Z" fill="#E3E7D9"/>
</g>
<defs>
<clipPath id="clip0_1668_1522">
<rect width="32" height="32" fill="white"/>
</clipPath>
</defs>
</svg>
