<svg width="32" height="32" viewBox="0 0 32 32" fill="none" xmlns="http://www.w3.org/2000/svg">
<g clip-path="url(#clip0_1645_1270)">
<path d="M16 0C7.16323 0 0 7.16323 0 16C0 24.8368 7.16323 32 16 32C24.8368 32 32 24.8368 32 16C32 7.16323 24.8368 0 16 0ZM16 3C23.8603 3 29 8.13968 29 16C29 23.8604 23.8604 29 16 29C8.13968 29 3 23.8603 3 16C3 8.13965 8.13965 3 16 3Z" fill="#E3E7D9"/>
<path d="M22.6673 5.32739L11.5719 8.32766H11.5591V12.8408H11.5719V20.9103C11.0865 20.6182 10.4914 20.4448 9.85206 20.4448C8.20506 20.4448 6.87793 21.5886 6.87793 22.9923C6.87793 24.3964 8.20544 25.527 9.85206 25.527C11.4987 25.527 12.8982 24.3952 12.8395 22.9924L12.8092 22.2723L12.736 12.5172L21.5037 10.1505V19.0606C20.9918 18.7076 20.3383 18.4916 19.6287 18.4916C17.9817 18.4916 16.6541 19.6354 16.6541 21.0391C16.6541 22.4432 17.9817 23.5737 19.6287 23.5737C21.2757 23.5737 22.6599 22.4432 22.6599 21.0391C22.6599 21.0259 22.6603 21.0135 22.6599 21.0002L22.6678 9.83977V5.32739H22.6673Z" fill="#E3E7D9"/>
</g>
<defs>
<clipPath id="clip0_1645_1270">
<rect width="32" height="32" fill="white"/>
</clipPath>
</defs>
</svg>
