<svg width="32" height="32" viewBox="0 0 32 32" fill="none" xmlns="http://www.w3.org/2000/svg">
<g clip-path="url(#clip0_1866_1291)">
<path fill-rule="evenodd" clip-rule="evenodd" d="M0 16C0 7.16344 7.16344 0 16 0C24.8366 0 32 7.16344 32 16C32 24.8366 24.8366 32 16 32C7.16344 32 0 24.8366 0 16ZM16 2.29855C8.43272 2.29855 2.29855 8.43272 2.29855 16C2.29855 23.5673 8.43272 29.7014 16 29.7014C23.5673 29.7014 29.7014 23.5673 29.7014 16C29.7014 8.43272 23.5673 2.29855 16 2.29855ZM16 3.81079C22.7311 3.81079 28.1893 9.26892 28.1893 16C28.1893 22.7312 22.7311 28.1893 16 28.1893C9.26886 28.1893 3.82217 22.7312 3.82217 16C3.82217 9.26892 9.26886 3.81079 16 3.81079ZM12.1248 9.28661L21.8333 6.66138H21.8337V10.6097L21.8268 20.3751C21.8272 20.3867 21.8268 20.3975 21.8268 20.4091C21.8268 21.6377 20.6156 22.6269 19.1745 22.6269C17.7333 22.6269 16.5717 21.6377 16.5717 20.4091C16.5717 19.1809 17.7333 18.18 19.1745 18.18C19.7954 18.18 20.3672 18.3691 20.8151 18.6779V10.8816L13.1434 12.9524L13.2075 21.4882L13.2339 22.1182C13.2853 23.3457 12.0607 24.336 10.6199 24.336C9.17915 24.336 8.01758 23.3468 8.01758 22.1182C8.01758 20.89 9.17882 19.8891 10.6199 19.8891C11.1794 19.8891 11.7001 20.0409 12.1248 20.2965V13.2356H12.1136V9.28661H12.1248Z" fill="#E3E7D9"/>
</g>
<defs>
<clipPath id="clip0_1866_1291">
<rect width="32" height="32" fill="white"/>
</clipPath>
</defs>
</svg>
