<svg width="32" height="32" viewBox="0 0 32 32" fill="none" xmlns="http://www.w3.org/2000/svg">
<g clip-path="url(#clip0_1645_1278)">
<path fill-rule="evenodd" clip-rule="evenodd" d="M16 0C7.16344 0 0 7.16344 0 16C0 24.8366 7.16344 32 16 32C24.8366 32 32 24.8366 32 16C32 7.16344 24.8366 0 16 0ZM4.85845 20.5061H4.7023H4.54616L4.39002 18.2174L4.56178 15.9286C4.55407 15.9047 4.55203 15.8793 4.55583 15.8545C4.55963 15.8296 4.56916 15.8061 4.58363 15.7857C4.59811 15.7654 4.61712 15.7488 4.63911 15.7374C4.66109 15.726 4.68542 15.72 4.71011 15.72C4.7348 15.72 4.75913 15.726 4.78112 15.7374C4.8031 15.7488 4.82211 15.7654 4.83659 15.7857C4.85107 15.8061 4.86059 15.8296 4.86439 15.8545C4.86819 15.8793 4.86616 15.9047 4.85845 15.9286L5.01459 18.2174L4.85845 20.5061ZM3.81229 19.6319V19.7432C3.72543 19.7432 3.68689 19.7432 3.66979 19.7241C3.65614 19.7088 3.65614 19.6813 3.65614 19.6319L3.5 18.265L3.65614 16.6756H3.81229L4.10896 18.265L3.81229 19.6319ZM5.59232 15.3246C5.74846 15.3246 5.74846 15.3246 5.74846 15.4835L6.04514 18.2174L5.74846 20.8081C5.74846 20.8881 5.74846 20.9278 5.7286 20.9475C5.70896 20.9671 5.66993 20.9671 5.59232 20.9671V20.8081L5.29565 18.2174L5.59232 15.4835V15.3246ZM6.7167 21.1032C6.69661 21.1103 6.6752 21.1127 6.6541 21.1101L6.49795 20.9512L6.34181 18.2174L6.49795 15.3246L6.6541 15.1656C6.6752 15.1631 6.69661 15.1654 6.7167 15.1725C6.73678 15.1796 6.75503 15.1912 6.77006 15.2065C6.78509 15.2218 6.79652 15.2404 6.80348 15.2609C6.81044 15.2813 6.81275 15.3031 6.81024 15.3246L7.10691 18.2174L6.81024 20.9512C6.81275 20.9727 6.81044 20.9944 6.80348 21.0149C6.79652 21.0353 6.78509 21.0539 6.77006 21.0692C6.75503 21.0845 6.73678 21.0961 6.7167 21.1032ZM7.76286 21.1032C7.74277 21.1103 7.72136 21.1127 7.70026 21.1101C7.59816 21.1101 7.5517 21.1101 7.53055 21.087C7.51288 21.0676 7.51288 21.0322 7.51288 20.9671L7.24744 18.2174L7.54411 15.6266C7.54411 15.5466 7.54411 15.5069 7.56398 15.4872C7.58361 15.4676 7.62265 15.4676 7.70026 15.4676C7.72136 15.4651 7.74277 15.4674 7.76286 15.4745C7.78294 15.4816 7.80119 15.4932 7.81622 15.5085C7.83125 15.5238 7.84268 15.5424 7.84964 15.5629C7.8566 15.5833 7.85891 15.6051 7.8564 15.6266L8.15307 18.2174L7.8564 20.9512C7.85891 20.9727 7.8566 20.9944 7.84964 21.0149C7.84268 21.0353 7.83125 21.0539 7.81622 21.0692C7.80119 21.0845 7.78294 21.0961 7.76286 21.1032ZM8.91817 13.9577L9.07432 18.2174L8.91817 20.9512C8.92068 20.9727 8.91837 20.9944 8.91141 21.0149C8.90446 21.0353 8.89303 21.0539 8.878 21.0692C8.86296 21.0845 8.84472 21.0961 8.82463 21.1032C8.80454 21.1103 8.78314 21.1127 8.76203 21.1101C8.6215 21.1101 8.46536 21.1101 8.46536 20.9512L8.30921 18.2174L8.46536 13.9577C8.46536 13.7987 8.60589 13.7987 8.76203 13.7987C8.78314 13.7962 8.80454 13.7985 8.82463 13.8056C8.84472 13.8127 8.86296 13.8243 8.878 13.8396C8.89303 13.8549 8.90446 13.8735 8.91141 13.894C8.91837 13.9144 8.92068 13.9362 8.91817 13.9577ZM9.93311 20.9512C9.93311 21.1101 9.79258 21.1101 9.63643 21.1101C9.61532 21.1127 9.59392 21.1103 9.57383 21.1032C9.55374 21.0961 9.5355 21.0845 9.52047 21.0692C9.50543 21.0539 9.49401 21.0353 9.48705 21.0149C9.48009 20.9944 9.47778 20.9727 9.48029 20.9512L9.32415 18.2174L9.48029 12.8928L9.63643 12.7338C9.74996 12.7517 9.85438 12.8076 9.93311 12.8928L10.0892 18.2174L9.93311 20.9512ZM10.4796 12.5908C10.4796 12.4477 10.4796 12.2888 10.6357 12.2888C10.7121 12.2959 10.7835 12.33 10.8377 12.3852C10.8919 12.4403 10.9254 12.5131 10.9324 12.5908L11.0886 18.2174L10.9324 20.9512C10.9324 21.1101 10.7919 21.1101 10.6357 21.1101C10.4796 21.1101 10.4796 21.1101 10.4796 20.9512L10.3235 18.2174L10.4796 12.5908ZM12.041 20.9512C12.041 21.1101 11.9005 21.1101 11.7444 21.1101C11.5882 21.1101 11.4321 21.1101 11.4477 20.9512L11.2916 18.2174L11.4477 12.2729C11.4477 12.1139 11.6038 12.1139 11.7444 12.1139C11.8849 12.1139 12.041 12.1139 12.041 12.2729L12.1972 18.2174L12.041 20.9512ZM12.9925 21.0137C12.9383 21.0689 12.8669 21.103 12.7905 21.1101C12.7142 21.103 12.6427 21.0689 12.5885 21.0137C12.5343 20.9586 12.5008 20.8858 12.4939 20.8081L12.3377 18.2174L12.4939 12.4318C12.4939 12.3517 12.5251 12.2749 12.5807 12.2183C12.6364 12.1617 12.7118 12.1298 12.7905 12.1298C12.8692 12.1298 12.9447 12.1617 13.0003 12.2183C13.0559 12.2749 13.0872 12.3517 13.0872 12.4318L13.2433 18.2174L13.0872 20.8081C13.0802 20.8858 13.0467 20.9586 12.9925 21.0137ZM14.1177 12.7338L14.2739 18.2174L14.1177 20.8081C14.1177 20.8478 14.1101 20.887 14.0952 20.9237C14.0803 20.9603 14.0584 20.9936 14.0309 21.0217C14.0033 21.0497 13.9706 21.0719 13.9346 21.0871C13.8986 21.1023 13.86 21.1101 13.8211 21.1101C13.7821 21.1101 13.7435 21.1023 13.7075 21.0871C13.6715 21.0719 13.6388 21.0497 13.6113 21.0217C13.5837 20.9936 13.5619 20.9603 13.547 20.9237C13.5321 20.887 13.5244 20.8478 13.5244 20.8081L13.3683 18.2174L13.5244 12.7338C13.5244 12.6942 13.5321 12.6549 13.547 12.6183C13.5619 12.5816 13.5837 12.5483 13.6113 12.5203C13.6388 12.4922 13.6715 12.47 13.7075 12.4548C13.7435 12.4396 13.7821 12.4318 13.8211 12.4318C13.86 12.4318 13.8986 12.4396 13.9346 12.4548C13.9706 12.47 14.0033 12.4922 14.0309 12.5203C14.0584 12.5483 14.0803 12.5816 14.0952 12.6183C14.1101 12.6549 14.1177 12.6942 14.1177 12.7338ZM15.0848 21.0137C15.0306 21.0689 14.9592 21.103 14.8828 21.1101C14.8089 21.1036 14.7393 21.0718 14.6854 21.0199C14.6315 20.9679 14.5965 20.8988 14.5862 20.824L14.43 18.2332L14.5862 11.6848C14.5862 11.6047 14.6174 11.5279 14.6731 11.4713C14.7287 11.4146 14.8042 11.3828 14.8828 11.3828C14.9615 11.3828 15.037 11.4146 15.0926 11.4713C15.1483 11.5279 15.1795 11.6047 15.1795 11.6848L15.3357 18.2174L15.1795 20.8081C15.1725 20.8858 15.139 20.9586 15.0848 21.0137ZM15.727 10.8593C15.7812 10.8041 15.8527 10.77 15.929 10.7629C16.0053 10.77 16.0768 10.8041 16.131 10.8593C16.1852 10.9145 16.2187 10.9872 16.2257 11.0649L16.3818 18.2174L16.2257 20.8081C16.2257 20.8882 16.1944 20.965 16.1388 21.0217C16.0832 21.0783 16.0077 21.1101 15.929 21.1101C15.8503 21.1101 15.7749 21.0783 15.7192 21.0217C15.6636 20.965 15.6323 20.8882 15.6323 20.8081L15.4762 18.2174L15.6323 11.0649C15.6393 10.9872 15.6728 10.9145 15.727 10.8593ZM25.5006 21.1101H16.9752C16.6785 21.1101 16.5224 20.9671 16.5224 20.8081V10.7629C16.5224 10.5406 16.5985 10.4819 16.701 10.403C16.7378 10.3748 16.7778 10.3439 16.819 10.302C17.5021 10.1164 18.2045 10.015 18.9113 10C20.2578 10.0201 21.5502 10.5426 22.5432 11.4685C23.5362 12.3943 24.1607 13.659 24.2983 15.0226C24.6837 14.8846 25.0933 14.8304 25.5006 14.8637C25.9038 14.8677 26.3021 14.9536 26.6722 15.1164C27.0423 15.2792 27.3768 15.5155 27.656 15.8116C27.9353 16.1077 28.1536 16.4575 28.2983 16.8406C28.4429 17.2237 28.511 17.6323 28.4985 18.0425C28.5006 18.4446 28.4246 18.8431 28.2748 19.2152C28.1251 19.5873 27.9046 19.9256 27.626 20.2107C27.3474 20.4957 27.0162 20.7219 26.6515 20.8763C26.2867 21.0307 25.8956 21.1101 25.5006 21.1101Z" fill="#E3E7D9"/>
</g>
<defs>
<clipPath id="clip0_1645_1278">
<rect width="32" height="32" fill="white"/>
</clipPath>
</defs>
</svg>
