<svg width="32" height="32" viewBox="0 0 32 32" fill="none" xmlns="http://www.w3.org/2000/svg">
<g clip-path="url(#clip0_1668_1620)">
<path fill-rule="evenodd" clip-rule="evenodd" d="M16 0C7.16344 0 0 7.16344 0 16C0 24.8366 7.16344 32 16 32C24.8366 32 32 24.8366 32 16C32 7.16344 24.8366 0 16 0ZM16.5732 11.812C15.017 12.4593 11.9067 13.799 7.24236 15.8312C6.48495 16.1324 6.08818 16.427 6.05206 16.7152C5.99102 17.2021 6.60079 17.3938 7.43114 17.6549C7.54408 17.6904 7.66111 17.7272 7.78109 17.7662C8.59802 18.0318 9.69694 18.3424 10.2682 18.3548C10.7864 18.366 11.3648 18.1523 12.0034 17.7139C16.3614 14.7721 18.611 13.2852 18.7523 13.2531C18.8519 13.2305 18.99 13.2021 19.0835 13.2852C19.1771 13.3684 19.1679 13.5258 19.158 13.5681C19.0976 13.8256 16.704 16.0509 15.4653 17.2024C15.0792 17.5615 14.8053 17.8161 14.7493 17.8743C14.6238 18.0045 14.496 18.1278 14.3731 18.2462C13.6142 18.9779 13.0451 19.5265 14.4047 20.4225C15.058 20.853 15.5808 21.2091 16.1024 21.5643C16.6721 21.9522 17.2402 22.3391 17.9753 22.821C18.1626 22.9437 18.3415 23.0713 18.5157 23.1954C19.1786 23.668 19.7742 24.0926 20.51 24.0249C20.9375 23.9856 21.3791 23.5836 21.6034 22.3846C22.1335 19.5509 23.1753 13.4114 23.4161 10.8814C23.4372 10.6597 23.4107 10.376 23.3894 10.2515C23.3681 10.127 23.3235 9.94956 23.1617 9.81821C22.97 9.66266 22.674 9.62986 22.5417 9.63219C21.9399 9.64279 21.0166 9.96384 16.5732 11.812Z" fill="#E3E7D9"/>
</g>
<defs>
<clipPath id="clip0_1668_1620">
<rect width="32" height="32" fill="white"/>
</clipPath>
</defs>
</svg>
