<svg width="32" height="32" viewBox="0 0 32 32" fill="none" xmlns="http://www.w3.org/2000/svg">
<g clip-path="url(#clip0_1668_1599)">
<path fill-rule="evenodd" clip-rule="evenodd" d="M16 0C7.16344 0 0 7.16344 0 16C0 24.8366 7.16344 32 16 32C24.8366 32 32 24.8366 32 16C32 7.16344 24.8366 0 16 0ZM16.7588 5H20.7049C20.7049 7.85681 23.0321 10.1942 26 10.2916V14.1223C24.0775 14.0899 22.2563 13.473 20.7723 12.4342V20.2579C20.7723 24.1861 17.4671 27.4 13.3862 27.4C9.30523 27.4 6 24.2186 6 20.2579C6 16.3299 9.23777 13.1809 13.2513 13.116V16.9467C11.43 17.0116 9.94604 18.4725 9.94604 20.2579C9.94604 22.076 11.4637 23.5693 13.3525 23.5693C15.2412 23.5693 16.7588 22.076 16.7588 20.2579V5Z" fill="#E3E7D9"/>
</g>
<defs>
<clipPath id="clip0_1668_1599">
<rect width="32" height="32" fill="white"/>
</clipPath>
</defs>
</svg>
