<svg width="32" height="32" viewBox="0 0 32 32" fill="none" xmlns="http://www.w3.org/2000/svg">
<g clip-path="url(#clip0_1668_1613)">
<path fill-rule="evenodd" clip-rule="evenodd" d="M16 0C7.16344 0 0 7.16344 0 16C0 24.8366 7.16344 32 16 32C24.8366 32 32 24.8366 32 16C32 7.16344 24.8366 0 16 0ZM24.0478 13.4639C24.0478 18.5599 20.1678 24.4399 13.0718 24.4399C10.8958 24.4399 8.86378 23.7999 7.17578 22.6959C7.47978 22.7359 7.78378 22.7519 8.09578 22.7519C9.90378 22.7519 11.5678 22.1359 12.8878 21.1039C11.1998 21.0719 9.77578 19.9599 9.28778 18.4239C9.52778 18.4719 9.76778 18.4959 10.0158 18.4959C10.3678 18.4959 10.7118 18.4479 11.0318 18.3599C9.26378 17.9999 7.93578 16.4479 7.93578 14.5759V14.5279C8.45578 14.8159 9.04778 14.9919 9.67978 15.0079C8.63978 14.3199 7.95978 13.1359 7.95978 11.7999C7.95978 11.0959 8.15178 10.4319 8.47978 9.86391C10.3838 12.1999 13.2238 13.7359 16.4318 13.8959C16.3598 13.6159 16.3278 13.3199 16.3278 13.0159C16.3278 10.8879 18.0558 9.15991 20.1838 9.15991C21.2958 9.15991 22.2958 9.62391 22.9998 10.3759C23.8798 10.1999 24.7038 9.87991 25.4478 9.43991C25.1598 10.3439 24.5518 11.0959 23.7518 11.5759C24.5358 11.4799 25.2798 11.2719 25.9678 10.9679C25.4478 11.7439 24.7918 12.4239 24.0398 12.9679C24.0478 13.1279 24.0478 13.2959 24.0478 13.4639Z" fill="#E3E7D9"/>
</g>
<defs>
<clipPath id="clip0_1668_1613">
<rect width="32" height="32" fill="white"/>
</clipPath>
</defs>
</svg>
