<svg width="32" height="32" viewBox="0 0 32 32" fill="none" xmlns="http://www.w3.org/2000/svg">
<g clip-path="url(#clip0_1668_1634)">
<path fill-rule="evenodd" clip-rule="evenodd" d="M16 0C7.16344 0 0 7.16344 0 16C0 24.8366 7.16344 32 16 32C24.8366 32 32 24.8366 32 16C32 7.16344 24.8366 0 16 0ZM7.82438 10.49L11.5387 6.77574H25.653V17.1757L18.9672 23.8615H15.9958L12.2815 27.5757V23.8615H7.82438V10.49ZM21.1958 19.4043L24.1672 16.4329V8.26145H12.2815V19.4043H15.6244V22.0043L18.2244 19.4043H21.1958ZM23.0002 10.0001H20.0002V16.0001H23.0002V10.0001ZM16.0002 10.0001H18.0002V16.0001H16.0002V10.0001Z" fill="#E3E7D9"/>
<path fill-rule="evenodd" clip-rule="evenodd" d="M24.167 16.4327L21.1955 19.4041H18.2241L15.6241 22.0041V19.4041H12.2812V8.26123H24.167V16.4327ZM21.9388 10.8613H20.4531V15.3185H21.9388V10.8613ZM16.3672 10.8613H17.8529V15.3185H16.3672V10.8613Z" fill="#E3E7D9"/>
</g>
<defs>
<clipPath id="clip0_1668_1634">
<rect width="32" height="32" fill="white"/>
</clipPath>
</defs>
</svg>
