<svg width="32" height="32" viewBox="0 0 32 32" fill="none" xmlns="http://www.w3.org/2000/svg">
<g clip-path="url(#clip0_1628_1227)">
<path d="M18.9147 3.04717C17.1986 3.35305 16.4989 5.41662 17.3678 6.81132C17.8909 7.65094 18.9614 8.05009 19.9296 7.87779C21.7701 7.55034 22.5822 5.27091 21.3906 3.84688C20.7939 3.13373 19.8181 2.88613 18.9147 3.04717Z" fill="white"/>
<path d="M14.625 10.9616C14.1569 12.5686 13.0678 13.9966 12.4889 15.5678C12.2117 16.3201 12.1927 17.15 12.138 17.9394C12.0676 18.9568 12.0549 19.98 11.9572 20.995C11.9277 21.3015 12.0378 21.7819 11.791 22.0242C11.6267 22.1856 11.3294 22.1352 11.119 22.1352H9.50444C7.44267 22.1352 4.53509 21.5172 3.33731 23.6858C3.1318 24.058 3.07672 24.4178 3 24.826L11.4419 24.7804C12.3284 24.7804 13.8679 25.0663 14.5175 24.3225C14.9666 23.8082 14.8294 22.9055 14.8574 22.272C14.9241 20.7678 15.0863 19.2645 15.0863 17.757C15.3377 17.9701 15.4447 18.3332 15.5873 18.6235L16.3893 20.2197L19.3189 26.0118C19.777 26.9176 20.1697 28.2239 21.1294 28.7334C21.9705 29.1799 23.3331 28.9306 24.2663 28.9306C23.9619 27.886 23.2474 26.8479 22.7554 25.875C21.7516 23.8902 20.7632 21.8954 19.7797 19.9005L18.6731 17.7114C18.5274 17.4233 18.234 17.0378 18.2328 16.708C18.2314 16.3084 18.5774 15.8764 18.737 15.5222C19.187 14.5239 19.7356 13.5672 20.1607 12.5578C20.7849 13.1801 21.3335 13.8923 21.9023 14.5645C22.1736 14.8851 22.4691 15.3357 22.8824 15.4839C23.3702 15.6589 23.9865 15.5678 24.4969 15.5678H26.8496C27.301 15.5678 27.7965 15.6214 28.2335 15.4859C28.8964 15.2804 29.1696 14.4784 28.8928 13.8804C28.5885 13.2229 27.9833 13.2419 27.3571 13.2419L24.9583 13.1963C24.6068 13.1963 24.1214 13.2808 23.8052 13.101C23.425 12.8847 23.1306 12.3829 22.8488 12.0561C22.2265 11.3347 21.6185 10.6002 21.0106 9.86699C20.7026 9.49552 20.4166 9.04028 20.0223 8.75227C19.5146 8.38144 18.4157 8.59 17.808 8.59H12.9181C12.2646 8.59 11.3427 8.42614 10.75 8.74584C10.2933 8.99216 10.0555 9.53661 9.79968 9.9582L8.41575 12.2385C8.19165 12.6078 7.86814 13.0024 7.76254 13.4243C7.55071 14.271 8.17675 14.9692 9.04313 14.9275C9.68495 14.8967 9.95878 14.3685 10.2425 13.8804L11.3497 11.9649C11.5132 11.6836 11.6576 11.3011 11.8864 11.0673C12.0576 10.8922 12.417 10.9616 12.6413 10.9616H14.625Z" fill="white"/>
</g>
<defs>
<clipPath id="clip0_1628_1227">
<rect width="26" height="26" fill="white" transform="translate(3 3)"/>
</clipPath>
</defs>
</svg>
